.
..............................Site Info...........................

 -   http://www.scenetime.com  *_*    

Scenetime .Always on time . friendly online private torrent community ..

     We care to share . Join us on  http://www.scenetime.com 

    Be the first to get new release at  http://www.scenetime.com

        Seed back for speed


...................................NFO:.................................................[IMG]http://img18.imageshack.us/img18/7232/mv5bmtgzotuxmzy3mv5bml5.jpg[/IMG]


                                                  


                        Outside.Bet.2012.DVDRip.XviD.AC3-No1  


Source........::: outside bet dvdr legend-rg-thanks



General
Complete name                            : C:UsersrootDesktopOutside.Bet.2012.DVDRip.XviD.AC3-No1Outside.Bet.2012.DVDRip.XviD.AC3-No1.avi
Format                                   : AVI
Format/Info                              : Audio Video Interleave
File size                                : 1.39 GiB
Duration                                 : 1h 36mn
Overall bit rate                         : 2 056 Kbps

Video
ID                                       : 0
Format                                   : MPEG-4 Visual
Format profile                           : Advanced Simple@L5
Format settings, BVOP                    : 2
Format settings, QPel                    : No
Format settings, GMC                     : No warppoints
Format settings, Matrix                  : Default (H.263)
Codec ID                                 : XVID
Codec ID/Hint                            : XviD
Duration                                 : 1h 36mn
Bit rate                                 : 1 600 Kbps
Width                                    : 720 pixels
Height                                   : 304 pixels
Display aspect ratio                     : 2.35:1
Frame rate                               : 25.000 fps
Color space                              : YUV
Chroma subsampling                       : 4:2:0
Bit depth                                : 8 bits
Scan type                                : Progressive
Compression mode                         : Lossy
Bits/(Pixel*Frame)                       : 0.292
Stream size                              : 1.08 GiB (78%)
Writing library                          : XviD 1.2.1 (UTC 2008-12-04)

Audio
ID                                       : 1
Format                                   : AC-3
Format/Info                              : Audio Coding 3
Mode extension                           : CM (complete main)
Format settings, Endianness              : Big
Codec ID                                 : 2000
Duration                                 : 1h 36mn
Bit rate mode                            : Constant
Bit rate                                 : 448 Kbps
Channel(s)                               : 6 channels
Channel positions                        : Front: L C R, Side: L R, LFE
Sampling rate                            : 48.0 KHz
Bit depth                                : 16 bits
Compression mode                         : Lossy
Stream size                              : 310 MiB (22%)
Alignment                                : Aligned on interleaves
Interleave, duration                     : 64 ms (1.60 video frames)
Interleave, preload duration             : 192 ms
Title                                    : VTS_01_1 T80 3_2ch 448Kbps DELAY 0ms





IMDB LINK....:: http://www.imdb.com/title/tt1772422/
Audio.............:: English
Subtitles........:: None
 


                                                               Screens                                                                          

[IMG]http://img62.imageshack.us/img62/4739/25905513.png[/IMG]
[IMG]http://img442.imageshack.us/img442/4520/68697520.png[/IMG]
[IMG]http://img341.imageshack.us/img341/6452/43208746.png[/IMG]
[IMG]http://img802.imageshack.us/img802/6762/96841357.png[/IMG]